<svg width="1059" height="195" viewBox="0 0 1059 195" fill="none" xmlns="http://www.w3.org/2000/svg">
<path d="M330.605 48.4699V138.141C330.705 140.791 331.699 143.029 333.584 144.862C335.467 146.695 337.732 147.613 340.383 147.613H342.216L342.368 149.139H295.928V147.613H297.913C300.459 147.613 302.673 146.695 304.559 144.862C306.443 143.029 307.485 140.841 307.691 138.294V48.4699H287.068C282.383 48.5726 278.665 50.0499 275.916 52.8993C273.167 55.7513 271.792 59.4686 271.792 64.0513V65.8846H270.264V39.3033C274.439 41.0366 280.447 41.9539 288.291 42.054H349.853C353.009 42.054 356.445 41.7473 360.164 41.1366C363.881 40.5259 366.452 39.9153 367.88 39.3033V65.8846H366.352V64.0513C366.352 57.7379 363.957 53.2579 359.172 50.6086C356.931 49.2859 354.231 48.5726 351.076 48.4699H330.605Z" fill="#002449"/>
<path d="M450.674 147.613C453.32 147.613 455.356 146.951 456.784 145.627C459.126 143.285 460.347 140.791 460.451 138.141V99.1872H410.955V137.989C410.955 140.638 411.923 142.903 413.858 144.786C415.791 146.673 418.083 147.613 420.732 147.613H422.566L422.718 149.141H376.279V147.613H378.264C380.911 147.613 383.176 146.673 385.063 144.786C386.946 142.903 387.939 140.638 388.04 137.989V53.3578C387.939 50.7112 386.946 48.4458 385.063 46.5605C383.176 44.6765 380.911 43.7338 378.264 43.7338H376.279V42.2058H422.718L422.566 43.7338H420.732C418.083 43.7338 415.791 44.6765 413.858 46.5605C411.923 48.4458 410.955 50.7112 410.955 53.3578V92.6178H460.451V53.3578C460.347 50.7112 459.355 48.4458 457.472 46.5605C455.586 44.6765 453.32 43.7338 450.674 43.7338H448.688V42.2058H495.127V43.7338H493.142C490.492 43.7338 488.2 44.6765 486.267 46.5605C484.331 48.4458 483.364 50.7112 483.364 53.3578V137.989C483.364 140.638 484.331 142.903 486.267 144.786C488.2 146.673 490.492 147.613 493.142 147.613H495.127V149.141H448.688V147.613H450.674Z" fill="#002449"/>
<path d="M509.792 147.613C512.438 147.613 514.705 146.673 516.59 144.786C518.473 142.903 519.466 140.638 519.569 137.989V52.8992C519.364 50.2525 518.6 48.3165 517.277 47.0952C514.833 44.8565 512.337 43.7338 509.792 43.7338H507.806V42.2058H566.314C571.302 42.2058 575.428 41.8245 578.688 41.0605C581.946 40.2965 583.932 39.7618 584.645 39.4565V66.1898L583.118 66.0365V64.3565C583.118 58.0432 580.773 53.5632 576.09 50.9138C573.849 49.5912 571.202 48.8778 568.148 48.7752H542.484V93.2285H562.648C566.414 93.1285 569.522 91.8298 571.966 89.3338C574.41 86.8392 575.632 83.7565 575.632 80.0912V78.7165H577.16V114.005H575.632V112.783C575.632 109.017 574.434 105.909 572.042 103.465C569.649 101.021 566.62 99.7485 562.953 99.6445H542.484V142.571H562.494C569.928 142.571 576.168 140.433 581.209 136.155C586.249 131.878 589.992 125.819 592.436 117.975H593.964L586.937 149.141H507.806V147.613H509.792Z" fill="#002449"/>
<path d="M645.749 48.9277H639.181H638.723V137.989C638.823 140.637 639.816 142.902 641.701 144.786C643.584 146.673 645.849 147.613 648.5 147.613H650.485V149.14H604.045V147.613H606.031C609.697 147.613 612.497 146.034 614.433 142.877C615.248 141.452 615.705 139.874 615.808 138.141V53.3584C615.705 50.7104 614.713 48.4464 612.829 46.5611C610.944 44.6771 608.679 43.7344 606.031 43.7344H604.045V42.2064H656.443C666.32 42.2064 674.672 44.3451 681.496 48.6224C684.957 50.7611 687.707 53.7397 689.745 57.5597C691.781 61.3784 692.8 66.369 692.8 72.5291C692.8 78.6931 690.661 84.6237 686.384 90.3264C682.107 96.0317 675.893 99.2891 667.748 100.104C673.652 102.04 678.847 106.518 683.329 113.546C694.328 131.166 702.475 141.654 707.771 145.014C710.417 146.645 713.728 147.512 717.7 147.613V149.14H702.729C693.869 149.14 686.511 147.97 680.656 145.626C674.799 143.285 670.192 139.161 666.831 133.253C664.895 129.893 660.668 121.184 654.152 107.13C651.299 100.92 647.836 97.5064 643.764 96.8957V95.3677H648.5C653.083 95.3677 657.131 93.993 660.644 91.2424C664.157 88.493 666.525 84.0131 667.748 77.7997C668.153 75.661 668.359 73.9811 668.359 72.7584C668.359 64.409 666.677 58.3757 663.317 54.6571C659.956 50.9397 655.627 49.0304 650.333 48.9277H645.749Z" fill="#002449"/>
<path d="M855.339 147.613H857.783V149.141H811.955V147.765H814.247C815.977 147.665 817.453 146.951 818.676 145.627C819.897 144.305 820.407 142.826 820.204 141.197L814.247 85.7445L785.527 135.239C781.757 141.554 779.821 147.206 779.721 152.195H778.195L738.935 86.2019L732.977 141.197C732.772 142.826 733.283 144.327 734.504 145.702C735.727 147.078 737.201 147.765 738.935 147.765H741.227V149.141H709.299V147.613H711.743C714.592 147.613 717.063 146.749 719.152 145.015C721.237 143.285 722.485 140.943 722.895 137.989L735.573 40.0672H736.949L784.305 117.975L829.828 40.0672H831.203L844.188 137.989C844.696 140.943 845.995 143.285 848.083 145.015C850.169 146.749 852.589 147.613 855.339 147.613Z" fill="#002449"/>
<path d="M888.18 112.783H918.734L903.915 75.2032L888.18 112.783ZM968.991 147.613H970.367V149.141H921.635V147.613H923.011C925.25 147.613 926.906 146.925 927.975 145.55C929.044 144.175 929.579 142.877 929.579 141.654C929.579 140.433 929.323 139.21 928.815 137.989L921.33 119.199H885.583L877.64 137.989C877.128 139.313 876.876 140.562 876.876 141.731C876.876 142.903 877.435 144.175 878.556 145.55C879.676 146.925 881.356 147.613 883.598 147.613H884.819V149.141H852.128V147.613H853.503C855.847 147.613 858.187 146.902 860.531 145.474C862.872 144.049 864.808 141.91 866.335 139.058L901.624 59.1632C906.41 49.0805 908.956 42.4125 909.262 39.1512H910.636L956.007 138.753C957.535 141.707 959.468 143.922 961.812 145.398C964.154 146.874 966.547 147.613 968.991 147.613Z" fill="#002449"/>
<path d="M974.031 147.613C976.678 147.613 978.945 146.673 980.83 144.786C982.713 142.903 983.706 140.638 983.809 137.989V52.8992C983.603 50.2525 982.839 48.3165 981.517 47.0952C979.073 44.8565 976.577 43.7338 974.031 43.7338H972.046V42.2058H1030.55C1035.54 42.2058 1039.67 41.8245 1042.93 41.0605C1046.19 40.2965 1048.17 39.7618 1048.88 39.4565V66.1898L1047.36 66.0365V64.3565C1047.36 58.0432 1045.01 53.5632 1040.33 50.9138C1038.09 49.5912 1035.44 48.8778 1032.39 48.7752H1006.72V93.2285H1026.89C1030.65 93.1285 1033.76 91.8298 1036.21 89.3338C1038.65 86.8392 1039.87 83.7565 1039.87 80.0912V78.7165H1041.4V114.005H1039.87V112.783C1039.87 109.017 1038.67 105.909 1036.28 103.465C1033.89 101.021 1030.86 99.7485 1027.19 99.6445H1006.72V142.571H1026.73C1034.17 142.571 1040.41 140.433 1045.45 136.155C1050.49 131.878 1054.23 125.819 1056.68 117.975H1058.2L1051.18 149.141H972.046V147.613H974.031Z" fill="#002449"/>
<path d="M130.121 186.058C126.524 183.657 124.055 181.325 121.092 180.158C119.061 179.358 117.032 178.527 115 177.701C120.071 175.219 125.607 173.647 131.377 172.513C171.431 164.646 202.52 132.459 207.98 93.4713C210.229 77.4126 208.869 61.8059 202.18 46.7593C202.888 49.1073 203.679 51.4339 204.28 53.8073C204.94 56.4059 205.467 59.0393 205.98 61.6699C215.795 111.95 182.943 159.587 131.283 170.765C125.013 172.122 118.949 174.433 112.936 176.862C106.923 174.433 100.859 172.122 94.5879 170.765C42.9292 159.587 10.0759 111.95 19.8905 61.6699C20.4039 59.0393 20.9319 56.4059 21.5919 53.8073C22.1932 51.4339 22.9839 49.1073 23.6905 46.7593C17.0012 61.8059 15.6412 77.4126 17.8905 93.4713C23.3519 132.459 54.4412 164.646 94.4932 172.513C100.265 173.647 105.8 175.219 110.871 177.701C108.839 178.527 106.811 179.358 104.78 180.158C101.817 181.325 99.3465 183.657 95.7505 186.058C98.7239 186.633 92.5719 194.435 94.3759 194.783C97.5412 191.171 109.039 180.937 112.936 178.774C117.353 180.294 127.465 190.539 130.119 194.783C131.923 194.435 127.148 186.633 130.121 186.058Z" fill="#002449"/>
<path d="M19.0371 109.116C18.1397 100.12 11.1104 94.3199 0.463745 94.1626C2.37841 105.577 11.5251 111.895 19.0371 109.116Z" fill="#002449"/>
<path d="M130.6 176.302C134.962 185.006 142.998 187.438 154.202 183.13C148.956 174.856 141.485 172.779 130.6 176.302Z" fill="#002449"/>
<path d="M71.8017 182.963C81.5337 187.821 91.499 184.903 95.0937 176.145C83.9417 172.842 76.5737 174.999 71.8017 182.963Z" fill="#002449"/>
<path d="M209.527 66.1857C218.686 61.2297 221.356 52.8884 216.884 43.2097C208.81 47.7657 205.974 56.6244 209.527 66.1857Z" fill="#002449"/>
<path d="M206.874 109.137C216.75 110.785 223.278 105.439 225.022 93.912C213.866 95.0067 207.405 100.561 206.874 109.137Z" fill="#002449"/>
<path d="M15.7803 87.0149C16.7603 77.2736 12.7403 70.4189 3.92428 66.8016C0.366944 77.0722 5.63628 86.0562 15.7803 87.0149Z" fill="#002449"/>
<path d="M16.6356 65.9899C19.2116 54.9059 16.9823 48.1805 8.63693 42.8685C4.83427 54.2885 7.8076 62.6085 16.6356 65.9899Z" fill="#002449"/>
<path d="M75.5901 168.571C67.7621 163.259 59.9701 163.546 51.6781 169.701C59.6648 177.621 70.9661 176.099 75.5901 168.571Z" fill="#002449"/>
<path d="M191.703 2.15787C186.435 9.5312 187.322 17.6445 194.663 26.4979C200.531 17.3939 199.456 9.24187 191.703 2.15787Z" fill="#002449"/>
<path d="M209.986 87.035C220.546 86.3857 224.994 76.507 222.226 66.751C213.154 70.3524 208.706 77.9217 209.986 87.035Z" fill="#002449"/>
<path d="M150.319 168.695C157.034 176.814 165.306 177.23 174.242 169.595C165.277 163.478 157.721 163.277 150.319 168.695Z" fill="#002449"/>
<path d="M28.4121 128.752C24.2788 118.876 18.2788 114.654 9.31879 115.036C10.9775 125.739 17.9681 130.915 28.4121 128.752Z" fill="#002449"/>
<path d="M34.0602 2.31956C26.2376 9.23556 25.1829 18.2769 31.2602 26.3089C38.4882 18.0089 39.4869 9.45556 34.0602 2.31956Z" fill="#002449"/>
<path d="M32.907 154.223C39.355 162.902 48.3177 164.566 56.3804 158.583C50.1444 151.4 41.4097 149.779 32.907 154.223Z" fill="#002449"/>
<path d="M169.548 158.999C178.388 164.381 186.069 162.84 193.009 154.292C184.352 149.623 174.013 151.696 169.548 158.999Z" fill="#002449"/>
<path d="M197.585 128.778C207.943 130.882 214.937 125.612 216.491 114.942C207.465 114.728 200.928 119.41 197.585 128.778Z" fill="#002449"/>
<path d="M41.5548 145.407C35.7108 137.621 28.2081 134.292 18.0775 136.14C23.3868 146.216 33.0708 149.963 41.5548 145.407Z" fill="#002449"/>
<path d="M21.0853 46.8163C26.5 37.555 25.9987 29.883 19.2307 22.5883C12.992 29.9723 14.2333 41.747 21.0853 46.8163Z" fill="#002449"/>
<path d="M184.607 145.743C193.464 149.738 203.394 145.666 207.471 136.365C197.359 134.319 189.506 137.541 184.607 145.743Z" fill="#002449"/>
<path d="M57.8577 0.865976C47.7657 -0.29269 41.4591 5.07398 40.6244 15.53C49.1191 15.758 56.2471 9.69398 57.8577 0.865976Z" fill="#002449"/>
<path d="M185.339 15.256C184.895 5.63732 177.188 -0.718685 167.636 0.763982C170.688 10.7933 177.659 16.4 185.339 15.256Z" fill="#002449"/>
<path d="M206.517 22.571C199.814 30.0417 199.352 38.8684 205.016 46.759C211.928 39.2204 212.525 31.219 206.517 22.571Z" fill="#002449"/>
<path d="M201.148 107.873C204.608 97.793 201.009 90.129 191.741 87.845C190.038 97.4863 193.617 105.105 201.148 107.873Z" fill="#002449"/>
<path d="M33.7771 87.7831C24.1425 89.7991 21.8918 98.5924 24.3518 108.247C32.5651 104.615 36.1785 96.4951 33.7771 87.7831Z" fill="#002449"/>
<path d="M20.1462 87.4497C29.5982 84.8164 34.8729 77.311 33.4209 69.0497C24.1836 70.791 19.9489 76.5204 20.1462 87.4497Z" fill="#002449"/>
<path d="M191.867 69.0156C192.317 79.4049 197.019 85.5529 205.449 87.1609C206.345 77.1182 201.662 70.6809 191.867 69.0156Z" fill="#002449"/>
<path d="M191.928 27.9783C190.445 19.5516 180.312 16.9196 171.56 22.2409C177.296 29.8329 184.162 31.7663 191.928 27.9783Z" fill="#002449"/>
<path d="M188.048 54.0124C191.28 63.0337 196.863 67.0644 205.285 66.4591C204.809 56.4271 197.999 51.5084 188.048 54.0124Z" fill="#002449"/>
<path d="M54.1795 22.0233C44.3355 16.8753 35.5555 20.0006 33.8875 28.0166C42.1595 31.6886 49.3075 29.5126 54.1795 22.0233Z" fill="#002449"/>
<path d="M37.6509 53.6483C26.7736 52.1763 20.6949 56.7776 20.7069 66.4723C29.3109 66.9496 35.4203 62.3256 37.6509 53.6483Z" fill="#002449"/>
<path d="M43.2575 37.4372C33.9628 34.4558 26.7775 38.6292 25.0402 48.0158C33.7148 49.4638 40.3068 45.6358 43.2575 37.4372Z" fill="#002449"/>
<path d="M79.3196 162.311C80.8702 154.025 76.9156 147.086 68.5582 143.429C65.5129 151.438 70.2876 161.042 79.3196 162.311Z" fill="#002449"/>
<path d="M157.019 143.363C148.759 147.571 145.574 153.106 146.278 162.483C156.467 159.134 160.123 152.437 157.019 143.363Z" fill="#002449"/>
<path d="M182.355 37.6853C186.289 46.076 192.428 49.4906 200.897 48C198.773 38.3026 191.165 34.0693 182.355 37.6853Z" fill="#002449"/>
<path d="M170.456 132.262C162.692 138.856 161.189 145.16 165.361 152.55C173.321 147.904 175.032 141.464 170.456 132.262Z" fill="#002449"/>
<path d="M46.1102 141.128C50.5955 133.596 50.0062 126.374 44.0342 119.256C38.0568 128.499 38.7835 135.248 46.1102 141.128Z" fill="#002449"/>
<path d="M181.349 119.628C175.809 126.812 175.306 131.875 179.418 141.328C187.091 135.203 187.757 126.147 181.349 119.628Z" fill="#002449"/>
<path d="M97.8673 169.237C96.666 160.04 92.2513 155.275 83.6353 153.439C82.5913 162.435 86.8086 167.24 97.8673 169.237Z" fill="#002449"/>
<path d="M60.7392 152.759C64.4659 143.96 62.1819 136.368 54.9045 132.559C50.9219 141.762 52.5805 147.812 60.7392 152.759Z" fill="#002449"/>
<path d="M141.902 153.342C132.939 155.896 128.906 160.38 128.003 169.256C139.092 167.232 143.474 162.09 141.902 153.342Z" fill="#002449"/>
<path d="M188.402 104.93C185.635 113.222 186.479 120.198 192.044 126.694C197.42 117.331 196.412 110.938 188.402 104.93Z" fill="#002449"/>
<path d="M37.5514 105.202C29.4314 109.973 28.0234 119.853 34.2901 126.331C39.3301 119.883 39.8861 112.903 37.5514 105.202Z" fill="#002449"/>
<path d="M143.592 74.2659C143.155 74.7033 140.026 74.8099 139.694 74.4913C139.15 70.6993 138.5 67.6619 137.532 65.0633C136.551 62.5699 135.358 61.9326 133.408 61.7206C130.503 61.3899 123.78 61.4953 122.163 61.6019C121.95 61.7206 121.738 62.0393 121.738 62.4766V80.1006H106.58V62.5699C106.58 62.3579 106.355 61.7206 106.038 61.7206C104.207 61.4953 98.359 61.4953 95.8657 61.7206C93.5857 61.8139 92.0737 62.6886 90.6804 65.6059C89.3684 67.9939 87.975 71.1233 86.7817 74.5846C86.3444 74.9153 83.095 74.2659 82.7777 73.5099C83.639 69.1739 84.607 60.1966 84.939 55.4353C84.939 55.2233 85.5884 54.6793 85.9204 54.7859C89.3684 55.9793 93.1604 56.2046 95.7604 56.2046H133.527C139.256 56.2046 142.718 55.7673 145.542 54.8913C145.86 54.8913 146.178 55.5419 146.178 55.7673C145.104 60.1966 144.123 67.3433 143.592 74.2659ZM106.475 84.2246H121.739V90.7086H106.475V84.2246ZM130.159 120.799C128.223 120.799 123.131 120.467 113.291 120.467C105.175 120.467 99.871 120.799 97.815 120.799C97.3777 120.467 97.271 117.55 97.7097 117.113L102.576 116.25C105.494 115.601 106.475 113.863 106.475 109.421V94.8206H121.738V110.19C121.738 113.333 122.163 115.163 124.762 115.919C126.154 116.357 128.435 116.794 130.596 117.113C131.034 117.657 130.596 120.362 130.159 120.799ZM164.691 43.2353C164.691 43.2353 158.404 41.3259 140.476 36.5379C121.486 31.4593 112.747 29.6433 112.747 29.6433C112.747 29.6433 103.995 31.4593 85.019 36.5379C67.0764 41.3259 60.791 43.2353 60.791 43.2353C60.791 43.2353 57.8337 62.0126 65.975 96.6766C72.5404 124.658 94.075 142.639 112.747 149.31C131.419 142.639 152.942 124.658 159.519 96.6766C167.648 62.0126 164.691 43.2353 164.691 43.2353Z" fill="#002449"/>
</svg>
