<svg width="226" height="195" viewBox="0 0 226 195" fill="none" xmlns="http://www.w3.org/2000/svg">
<path d="M130.121 186.058C126.524 183.657 124.055 181.325 121.092 180.158C119.061 179.358 117.032 178.527 115 177.701C120.071 175.219 125.607 173.647 131.377 172.513C171.431 164.646 202.52 132.459 207.98 93.4713C210.229 77.4126 208.869 61.8059 202.18 46.7593C202.888 49.1073 203.679 51.4339 204.28 53.8073C204.94 56.4059 205.467 59.0393 205.98 61.6699C215.795 111.95 182.943 159.587 131.283 170.765C125.013 172.122 118.949 174.433 112.936 176.862C106.923 174.433 100.859 172.122 94.5879 170.765C42.9292 159.587 10.0759 111.95 19.8905 61.6699C20.4039 59.0393 20.9319 56.4059 21.5919 53.8073C22.1932 51.4339 22.9839 49.1073 23.6905 46.7593C17.0012 61.8059 15.6412 77.4126 17.8905 93.4713C23.3519 132.459 54.4412 164.646 94.4932 172.513C100.265 173.647 105.8 175.219 110.871 177.701C108.839 178.527 106.811 179.358 104.78 180.158C101.817 181.325 99.3465 183.657 95.7505 186.058C98.7239 186.633 92.5719 194.435 94.3759 194.783C97.5412 191.171 109.039 180.937 112.936 178.774C117.353 180.294 127.465 190.539 130.119 194.783C131.923 194.435 127.148 186.633 130.121 186.058Z" fill="#002449"/>
<path d="M19.0371 109.116C18.1397 100.12 11.1104 94.3199 0.463745 94.1626C2.37841 105.577 11.5251 111.895 19.0371 109.116Z" fill="#002449"/>
<path d="M130.6 176.302C134.962 185.006 142.998 187.438 154.202 183.13C148.956 174.856 141.485 172.779 130.6 176.302Z" fill="#002449"/>
<path d="M71.8017 182.963C81.5337 187.821 91.499 184.903 95.0937 176.145C83.9417 172.842 76.5737 174.999 71.8017 182.963Z" fill="#002449"/>
<path d="M209.527 66.1857C218.686 61.2297 221.356 52.8884 216.884 43.2097C208.81 47.7657 205.974 56.6244 209.527 66.1857Z" fill="#002449"/>
<path d="M206.874 109.137C216.75 110.785 223.278 105.439 225.022 93.912C213.866 95.0067 207.405 100.561 206.874 109.137Z" fill="#002449"/>
<path d="M15.7803 87.0149C16.7603 77.2736 12.7403 70.4189 3.92428 66.8016C0.366944 77.0722 5.63628 86.0562 15.7803 87.0149Z" fill="#002449"/>
<path d="M16.6356 65.9899C19.2116 54.9059 16.9823 48.1805 8.63693 42.8685C4.83427 54.2885 7.8076 62.6085 16.6356 65.9899Z" fill="#002449"/>
<path d="M75.5901 168.571C67.7621 163.259 59.9701 163.546 51.6781 169.701C59.6648 177.621 70.9661 176.099 75.5901 168.571Z" fill="#002449"/>
<path d="M191.703 2.15787C186.435 9.5312 187.322 17.6445 194.663 26.4979C200.531 17.3939 199.456 9.24187 191.703 2.15787Z" fill="#002449"/>
<path d="M209.986 87.035C220.546 86.3857 224.994 76.507 222.226 66.751C213.154 70.3524 208.706 77.9217 209.986 87.035Z" fill="#002449"/>
<path d="M150.319 168.695C157.034 176.814 165.306 177.23 174.242 169.595C165.277 163.478 157.721 163.277 150.319 168.695Z" fill="#002449"/>
<path d="M28.4121 128.752C24.2788 118.876 18.2788 114.654 9.31879 115.036C10.9775 125.739 17.9681 130.915 28.4121 128.752Z" fill="#002449"/>
<path d="M34.0602 2.31956C26.2376 9.23556 25.1829 18.2769 31.2602 26.3089C38.4882 18.0089 39.4869 9.45556 34.0602 2.31956Z" fill="#002449"/>
<path d="M32.907 154.223C39.355 162.902 48.3177 164.566 56.3804 158.583C50.1444 151.4 41.4097 149.779 32.907 154.223Z" fill="#002449"/>
<path d="M169.548 158.999C178.388 164.381 186.069 162.84 193.009 154.292C184.352 149.623 174.013 151.696 169.548 158.999Z" fill="#002449"/>
<path d="M197.585 128.778C207.943 130.882 214.937 125.612 216.491 114.942C207.465 114.728 200.928 119.41 197.585 128.778Z" fill="#002449"/>
<path d="M41.5548 145.407C35.7108 137.621 28.2081 134.292 18.0775 136.14C23.3868 146.216 33.0708 149.963 41.5548 145.407Z" fill="#002449"/>
<path d="M21.0853 46.8163C26.5 37.555 25.9987 29.883 19.2307 22.5883C12.992 29.9723 14.2333 41.747 21.0853 46.8163Z" fill="#002449"/>
<path d="M184.607 145.743C193.464 149.738 203.394 145.666 207.471 136.365C197.359 134.319 189.506 137.541 184.607 145.743Z" fill="#002449"/>
<path d="M57.8577 0.865977C47.7657 -0.29269 41.4591 5.07398 40.6244 15.53C49.1191 15.758 56.2471 9.69398 57.8577 0.865977Z" fill="#002449"/>
<path d="M185.339 15.256C184.895 5.63732 177.188 -0.718685 167.636 0.763982C170.688 10.7933 177.659 16.4 185.339 15.256Z" fill="#002449"/>
<path d="M206.517 22.571C199.814 30.0417 199.352 38.8684 205.016 46.759C211.928 39.2204 212.525 31.219 206.517 22.571Z" fill="#002449"/>
<path d="M201.148 107.873C204.608 97.793 201.009 90.129 191.741 87.845C190.038 97.4863 193.617 105.105 201.148 107.873Z" fill="#002449"/>
<path d="M33.7771 87.7831C24.1425 89.7991 21.8918 98.5924 24.3518 108.247C32.5651 104.615 36.1785 96.4951 33.7771 87.7831Z" fill="#002449"/>
<path d="M20.1462 87.4497C29.5982 84.8164 34.8729 77.311 33.4209 69.0497C24.1836 70.791 19.9489 76.5204 20.1462 87.4497Z" fill="#002449"/>
<path d="M191.867 69.0156C192.317 79.4049 197.019 85.5529 205.449 87.1609C206.345 77.1182 201.662 70.6809 191.867 69.0156Z" fill="#002449"/>
<path d="M191.928 27.9783C190.445 19.5516 180.312 16.9196 171.56 22.2409C177.296 29.8329 184.162 31.7663 191.928 27.9783Z" fill="#002449"/>
<path d="M188.048 54.0124C191.28 63.0337 196.863 67.0644 205.285 66.4591C204.809 56.4271 197.999 51.5084 188.048 54.0124Z" fill="#002449"/>
<path d="M54.1795 22.0233C44.3355 16.8753 35.5555 20.0006 33.8875 28.0166C42.1595 31.6886 49.3075 29.5126 54.1795 22.0233Z" fill="#002449"/>
<path d="M37.6509 53.6483C26.7736 52.1763 20.6949 56.7776 20.7069 66.4723C29.3109 66.9496 35.4203 62.3256 37.6509 53.6483Z" fill="#002449"/>
<path d="M43.2575 37.4372C33.9628 34.4558 26.7775 38.6292 25.0402 48.0158C33.7148 49.4638 40.3068 45.6358 43.2575 37.4372Z" fill="#002449"/>
<path d="M79.3196 162.311C80.8702 154.025 76.9156 147.086 68.5582 143.429C65.5129 151.438 70.2876 161.042 79.3196 162.311Z" fill="#002449"/>
<path d="M157.019 143.363C148.759 147.571 145.574 153.106 146.278 162.483C156.467 159.134 160.123 152.437 157.019 143.363Z" fill="#002449"/>
<path d="M182.355 37.6853C186.289 46.076 192.428 49.4906 200.897 48C198.773 38.3026 191.165 34.0693 182.355 37.6853Z" fill="#002449"/>
<path d="M170.456 132.262C162.692 138.856 161.189 145.16 165.361 152.55C173.321 147.904 175.032 141.464 170.456 132.262Z" fill="#002449"/>
<path d="M46.1102 141.128C50.5955 133.596 50.0062 126.374 44.0342 119.256C38.0568 128.499 38.7835 135.248 46.1102 141.128Z" fill="#002449"/>
<path d="M181.349 119.628C175.809 126.812 175.306 131.875 179.418 141.328C187.091 135.203 187.757 126.147 181.349 119.628Z" fill="#002449"/>
<path d="M97.8673 169.237C96.666 160.04 92.2513 155.275 83.6353 153.439C82.5913 162.435 86.8086 167.24 97.8673 169.237Z" fill="#002449"/>
<path d="M60.7392 152.759C64.4659 143.96 62.1819 136.368 54.9045 132.559C50.9219 141.762 52.5805 147.812 60.7392 152.759Z" fill="#002449"/>
<path d="M141.902 153.342C132.939 155.896 128.906 160.38 128.003 169.256C139.092 167.232 143.474 162.09 141.902 153.342Z" fill="#002449"/>
<path d="M188.402 104.93C185.635 113.222 186.479 120.198 192.044 126.694C197.42 117.331 196.412 110.938 188.402 104.93Z" fill="#002449"/>
<path d="M37.5514 105.202C29.4314 109.973 28.0234 119.853 34.2901 126.331C39.3301 119.883 39.8861 112.903 37.5514 105.202Z" fill="#002449"/>
<path d="M143.592 74.2659C143.155 74.7033 140.026 74.8099 139.694 74.4913C139.15 70.6993 138.5 67.6619 137.532 65.0633C136.551 62.5699 135.358 61.9326 133.408 61.7206C130.503 61.3899 123.78 61.4953 122.163 61.6019C121.95 61.7206 121.738 62.0393 121.738 62.4766V80.1006H106.58V62.5699C106.58 62.3579 106.355 61.7206 106.038 61.7206C104.207 61.4953 98.359 61.4953 95.8657 61.7206C93.5857 61.8139 92.0737 62.6886 90.6804 65.6059C89.3684 67.9939 87.975 71.1233 86.7817 74.5846C86.3444 74.9153 83.095 74.2659 82.7777 73.5099C83.639 69.1739 84.607 60.1966 84.939 55.4353C84.939 55.2233 85.5884 54.6793 85.9204 54.7859C89.3684 55.9793 93.1604 56.2046 95.7604 56.2046H133.527C139.256 56.2046 142.718 55.7673 145.542 54.8913C145.86 54.8913 146.178 55.5419 146.178 55.7673C145.104 60.1966 144.123 67.3433 143.592 74.2659ZM106.475 84.2246H121.739V90.7086H106.475V84.2246ZM130.159 120.799C128.223 120.799 123.131 120.467 113.291 120.467C105.175 120.467 99.871 120.799 97.815 120.799C97.3777 120.467 97.271 117.55 97.7097 117.113L102.576 116.25C105.494 115.601 106.475 113.863 106.475 109.421V94.8206H121.738V110.19C121.738 113.333 122.163 115.163 124.762 115.919C126.154 116.357 128.435 116.794 130.596 117.113C131.034 117.657 130.596 120.362 130.159 120.799ZM164.691 43.2353C164.691 43.2353 158.404 41.3259 140.476 36.5379C121.486 31.4593 112.747 29.6433 112.747 29.6433C112.747 29.6433 103.995 31.4593 85.019 36.5379C67.0764 41.3259 60.791 43.2353 60.791 43.2353C60.791 43.2353 57.8337 62.0126 65.975 96.6766C72.5404 124.658 94.075 142.639 112.747 149.31C131.419 142.639 152.942 124.658 159.519 96.6766C167.648 62.0126 164.691 43.2353 164.691 43.2353Z" fill="#002449"/>
</svg>
